<svg width="39" height="31" viewBox="0 0 39 31" fill="none" xmlns="http://www.w3.org/2000/svg">
<path d="M34.2632 6.43732H26.6491V3.21866C26.6491 1.4323 24.955 0 22.8421 0H15.2281C13.1152 0 11.4211 1.4323 11.4211 3.21866V6.43732H3.80702C1.69412 6.43732 0.0190351 7.86962 0.0190351 9.65598L0 27.3586C0 29.145 1.69412 30.5773 3.80702 30.5773H34.2632C36.3761 30.5773 38.0702 29.145 38.0702 27.3586V9.65598C38.0702 7.86962 36.3761 6.43732 34.2632 6.43732ZM22.8421 6.43732H15.2281V3.21866H22.8421V6.43732Z" fill="white"/>
<rect x="6" y="6" width="3" height="25" fill="#484FA0"/>
<rect x="29" y="6" width="3" height="25" fill="#484FA0"/>
</svg>
