<svg width="47" height="34" viewBox="0 0 47 34" fill="none" xmlns="http://www.w3.org/2000/svg">
<path fill-rule="evenodd" clip-rule="evenodd" d="M0.833374 8.83337C0.833374 4.41509 4.4151 0.833374 8.83337 0.833374H38.3334C42.7517 0.833374 46.3334 4.4151 46.3334 8.83337V11.699H46.3333C43.3328 11.699 40.9005 14.1314 40.9005 17.1319C40.9005 20.1324 43.3328 22.5647 46.3333 22.5647H46.3334V25.4304C46.3334 29.8487 42.7517 33.4304 38.3334 33.4304H8.83337C4.4151 33.4304 0.833374 29.8487 0.833374 25.4304V22.3936C1.26747 22.5053 1.72256 22.5647 2.19152 22.5647C5.192 22.5647 7.62436 20.1324 7.62436 17.1319C7.62436 14.1314 5.192 11.699 2.19152 11.699C1.72256 11.699 1.26747 11.7585 0.833374 11.8702V8.83337Z" fill="white"/>
<path d="M23.5833 5.58704L26.099 13.3297H34.2401L27.6538 18.1149L30.1695 25.8575L23.5833 21.0723L16.997 25.8575L19.5127 18.1149L12.9265 13.3297H21.0675L23.5833 5.58704Z" fill="#139ED9"/>
</svg>
